# WaveFront *.obj file (generated by Cheetah3D)

mtllib tile.mtl

g Plane
v -0.500000 -0.086250 -0.500000
v -0.500000 -0.086250 0.500000
v 0.500000 -0.086250 -0.500000
v 0.500000 -0.086250 0.500000
v -0.392500 0.000000 -0.392500
v 0.392500 0.000000 -0.392500
v 0.392500 0.000000 0.392500
v -0.392500 0.000000 0.392500

vt 0.000000 1.000000
vt 1.000000 1.000000
vt 1.000000 0.000000
vt 0.000000 0.000000

vn -0.231039 0.945115 -0.231039
vn 0.231039 0.945115 -0.231039
vn 0.231039 0.945115 0.231039
vn -0.231039 0.945115 0.231039
vn 0.000000 0.943394 -0.331675
vn 0.000000 0.779983 -0.625800
vn 0.331675 0.943394 0.000000
vn 0.625800 0.779983 0.000000
vn 0.000000 0.943394 0.331675
vn 0.000000 0.779983 0.625800
vn -0.331675 0.943394 0.000000
vn -0.625800 0.779983 0.000000

usemtl default
f 8/1/4 7/1/3 6/1/2 5/1/1
f 6/1/5 3/1/6 1/1/6 5/1/5
f 7/1/7 4/1/8 3/2/8 6/1/7
f 8/1/9 2/1/10 4/3/10 7/1/9
f 5/1/11 1/1/12 2/4/12 8/1/11

